<?xml version="1.0" encoding="utf-8"?>
<!-- Generator: Adobe Illustrator 16.0.0, SVG Export Plug-In . SVG Version: 6.00 Build 0)  -->
<!DOCTYPE svg PUBLIC "-//W3C//DTD SVG 1.1//EN" "http://www.w3.org/Graphics/SVG/1.1/DTD/svg11.dtd">
<svg version="1.1" id="Layer_1" xmlns="http://www.w3.org/2000/svg" xmlns:xlink="http://www.w3.org/1999/xlink" x="0px" y="0px"
	 width="250px" height="250px" viewBox="0 0 250 250" enable-background="new 0 0 250 250" xml:space="preserve">
<g>
	<path fill-rule="evenodd" clip-rule="evenodd" fill="#F85C70" d="M168.069,106.357c-14.262,17.751-28.521,35.508-42.96,53.479
		c-14.446-17.987-28.708-35.745-43.413-54.053c0,27.942,0,55.173,0,83.067c-4.451-0.313-8.684-0.241-12.775-0.969
		c-21.103-3.753-36.114-21.512-36.181-43.187c-0.143-46.25-0.043-92.498-0.037-138.746c0-0.669,0.091-1.339,0.15-2.143
		c10.955-0.709,20.914,1.625,29.95,7.737c5.989,4.051,10.242,9.743,14.751,15.202c15.264,18.479,30.512,36.969,45.771,55.45
		c0.533,0.646,1.106,1.256,1.837,2.082c4.127-4.974,8.15-9.813,12.163-14.66c13.859-16.738,27.632-33.551,41.604-50.194
		c9.947-11.847,22.992-16.486,38.405-15.651c0,64.528,0,128.924,0,193.752c-7.143-5.994-15.153-9.23-24.37-9.084
		c-9.186,0.147-17.096,3.49-24.253,9.954c0-30.906,0-61.365,0-91.824C168.499,106.499,168.283,106.428,168.069,106.357z"/>
	<path fill-rule="evenodd" clip-rule="evenodd" fill="#1DBF73" d="M170.956,224.317c-0.544-11.935,9.274-22.5,21.438-23.073
		c12.312-0.581,22.98,9.107,23.591,21.425c0.611,12.317-9.157,23.127-21.358,23.633C181.81,246.834,171.548,237.3,170.956,224.317z"
		/>
</g>
</svg>
